<svg width="2656" height="692" viewBox="0 0 2656 692" fill="none" xmlns="http://www.w3.org/2000/svg">
<g clip-path="url(#clip0_2_62)">
<mask id="mask0_2_62" style="mask-type:luminance" maskUnits="userSpaceOnUse" x="0" y="0" width="2656" height="692">
<path d="M2656 0H0V692H2656V0Z" fill="white"/>
</mask>
<g mask="url(#mask0_2_62)">
<path d="M256.09 43.3703L347.087 -112.502L400.385 -188.577L345.325 -36.3551L434.852 -80.2208L345.292 110.417L437.369 53.1657L351.193 242.762L434.157 192.022L347.878 386.097L430.867 334.237L344.743 521.594L433.254 473.223L351.687 657.323L433.427 611.037L348.45 797.299L433.652 746.611L256.105 1011.4L360.146 824.459L258.773 896.061L363.41 683.364L262.322 742.648L366.622 544.508L265.715 595.953L369.834 405.652L268.953 455.977L373.071 265.676L267.608 320.377L371.727 130.076L262.93 183.579L370.563 -13.3632L256.09 43.3703Z" fill="url(#paint0_linear_2_62)"/>
<path d="M-52.229 97.7942L38.7683 -58.0781L92.0668 -134.153L37.0069 18.0687L126.534 -25.797L36.973 164.841L129.05 107.59L42.8749 297.186L125.838 246.446L39.5592 440.521L122.549 388.661L36.4249 576.017L124.936 527.647L43.3689 711.747L125.109 665.46L40.131 851.723L125.334 801.035L-52.2133 1065.83L51.8272 878.883L-49.5452 950.485L55.091 737.788L-45.9965 797.072L58.303 598.932L-42.6032 650.377L61.515 460.076L-39.3652 510.401L64.7529 320.1L-40.7102 374.801L63.408 184.5L-45.3886 238.003L62.2444 41.0606L-52.229 97.7942Z" fill="url(#paint1_linear_2_62)"/>
<path d="M417.443 6.06564L508.44 -149.807L561.739 -225.882L506.679 -73.6598L596.206 -117.525L506.645 73.1126L598.722 15.861L512.547 205.457L595.51 154.717L509.231 348.792L592.221 296.932L506.097 484.289L594.608 435.918L513.041 620.019L594.781 573.732L509.803 759.994L595.006 709.306L417.459 974.097L521.499 787.155L420.127 858.757L524.763 646.059L423.676 705.343L527.975 507.203L427.069 558.648L531.187 368.347L430.307 418.673L534.425 228.371L428.962 283.072L533.08 92.771L424.283 146.275L531.916 -50.6679L417.443 6.06564Z" fill="url(#paint2_linear_2_62)"/>
<path d="M100.968 64.6985L191.965 -91.1738L245.263 -167.249L190.203 -15.027L279.73 -58.8927L190.169 131.745L282.247 74.4938L196.071 264.09L279.035 213.35L192.756 407.425L275.745 355.565L189.621 542.922L278.132 494.551L196.565 678.651L278.305 632.365L193.327 818.627L278.53 767.939L100.983 1032.73L205.024 845.788L103.651 917.389L208.287 704.692L107.2 763.976L211.499 565.836L110.593 617.281L214.711 426.98L113.831 477.305L217.949 287.004L112.486 341.705L216.604 151.404L107.808 204.907L215.441 7.96494L100.968 64.6985Z" fill="url(#paint3_linear_2_62)"/>
<path d="M570.638 -27.0379L661.636 -182.91L714.934 -258.985L659.874 -106.763L749.401 -150.629L659.84 40.0091L751.918 -17.2425L665.742 172.353L748.706 121.614L662.427 315.689L745.416 263.829L659.292 451.185L747.803 402.815L666.236 586.915L747.976 540.628L662.998 726.891L748.201 676.203L570.654 940.993L674.695 754.051L573.322 825.653L677.958 612.956L576.871 672.24L681.17 474.1L580.264 525.545L684.382 335.244L583.502 385.569L687.62 195.268L582.157 249.969L686.275 59.6675L577.479 113.171L685.112 -83.7714L570.638 -27.0379Z" fill="url(#paint4_linear_2_62)"/>
<path d="M709.144 120.698L800.142 -35.1738L853.44 -111.249L798.38 40.973L887.907 -2.89267L798.346 187.745L890.423 130.494L804.248 320.09L887.211 269.35L800.932 463.425L883.922 411.565L797.798 598.922L886.309 550.551L804.742 734.651L886.482 688.365L801.504 874.627L886.707 823.939L709.16 1088.73L813.2 901.788L711.828 973.389L816.464 760.692L715.377 819.976L819.676 621.836L718.77 673.281L822.888 482.98L722.008 533.305L826.126 343.004L720.663 397.705L824.781 207.404L715.985 260.907L823.618 63.9649L709.144 120.698Z" fill="url(#paint5_linear_2_62)"/>
<path d="M1170.18 53.6848L1261.18 -102.187L1314.48 -178.263L1259.42 -26.0406L1348.94 -69.9064L1259.38 120.732L1351.46 63.4801L1265.29 253.076L1348.25 202.336L1261.97 396.411L1344.96 344.552L1258.84 531.908L1347.35 483.537L1265.78 667.638L1347.52 621.351L1262.54 807.614L1347.74 756.925L1170.2 1021.72L1274.24 834.774L1172.87 906.376L1277.5 693.678L1176.41 752.962L1280.71 554.822L1179.81 606.268L1283.93 415.966L1183.05 466.292L1287.16 275.99L1181.7 330.691L1285.82 140.39L1177.02 193.894L1284.65 -3.04874L1170.18 53.6848Z" fill="url(#paint6_linear_2_62)"/>
<path d="M1639.85 -38.0496L1730.85 -193.922L1784.15 -269.997L1729.09 -117.775L1818.62 -161.641L1729.06 28.9974L1821.13 -28.2542L1734.96 161.342L1817.92 110.602L1731.64 304.677L1814.63 252.817L1728.51 440.174L1817.02 391.803L1735.45 575.903L1817.19 529.617L1732.21 715.879L1817.42 665.191L1639.87 929.981L1743.91 743.039L1642.54 814.641L1747.17 601.944L1646.09 661.228L1750.39 463.088L1649.48 514.533L1753.6 324.232L1652.72 374.557L1756.84 184.256L1651.37 238.957L1755.49 48.6558L1646.69 102.159L1754.33 -94.7831L1639.85 -38.0496Z" fill="url(#paint7_linear_2_62)"/>
<path d="M870.498 83.3899L961.495 -72.4824L1014.79 -148.558L959.734 3.66443L1049.26 -40.2013L959.7 150.437L1051.78 93.1852L965.602 282.781L1048.56 232.041L962.286 426.117L1045.28 374.257L959.152 561.613L1047.66 513.242L966.096 697.343L1047.84 651.056L962.858 837.319L1048.06 786.63L870.513 1051.42L974.554 864.479L873.182 936.081L977.818 723.383L876.73 782.667L981.03 584.527L880.124 635.973L984.242 445.671L883.362 495.997L987.48 305.695L882.017 360.397L986.135 170.095L877.338 223.599L984.971 26.6563L870.498 83.3899Z" fill="url(#paint8_linear_2_62)"/>
<path d="M1331.53 16.3742L1422.53 -139.498L1475.83 -215.573L1420.77 -63.3512L1510.3 -107.217L1420.74 83.4212L1512.81 26.1696L1426.64 215.766L1509.6 165.026L1423.32 359.101L1506.31 307.241L1420.19 494.597L1508.7 446.227L1427.13 630.327L1508.87 584.041L1423.89 770.303L1509.1 719.615L1331.55 984.405L1435.59 797.463L1334.22 869.065L1438.85 656.368L1337.77 715.652L1442.07 517.512L1341.16 568.957L1445.28 378.656L1344.4 428.981L1448.52 238.68L1343.05 293.381L1447.17 103.08L1338.38 156.583L1446.01 -40.3593L1331.53 16.3742Z" fill="url(#paint9_linear_2_62)"/>
<path d="M1801.21 -75.3543L1892.2 -231.227L1945.5 -307.302L1890.44 -155.08L1979.97 -198.945L1890.41 -8.30731L1982.49 -65.5589L1896.31 124.037L1979.27 73.2971L1892.99 267.372L1975.98 215.513L1889.86 402.869L1978.37 354.498L1896.8 538.599L1978.54 492.312L1893.57 678.575L1978.77 627.886L1801.22 892.677L1905.26 705.735L1803.89 777.337L1908.53 564.639L1807.44 623.923L1911.74 425.783L1810.83 477.228L1914.95 286.927L1814.07 337.253L1918.19 146.951L1812.73 201.652L1916.84 11.3511L1808.05 64.8547L1915.68 -132.088L1801.21 -75.3543Z" fill="url(#paint10_linear_2_62)"/>
<path d="M1023.69 50.2961L1114.69 -105.576L1167.99 -181.651L1112.93 -29.4293L1202.46 -73.295L1112.9 117.343L1204.97 60.0915L1118.8 249.687L1201.76 198.948L1115.48 393.023L1198.47 341.163L1112.35 528.519L1200.86 480.148L1119.29 664.249L1201.03 617.962L1116.05 804.225L1201.26 753.537L1023.71 1018.33L1127.75 831.385L1026.38 902.987L1131.01 690.29L1029.93 749.574L1134.23 551.434L1033.32 602.879L1137.44 412.578L1036.56 462.903L1140.67 272.602L1035.21 327.303L1139.33 137.001L1030.53 190.505L1138.17 -6.43741L1023.69 50.2961Z" fill="url(#paint11_linear_2_62)"/>
<path d="M1484.73 -16.7215L1575.73 -172.594L1629.03 -248.669L1573.97 -96.4469L1663.49 -140.313L1573.93 50.3255L1666.01 -6.9261L1579.84 182.67L1662.8 131.93L1576.52 326.005L1659.51 274.145L1573.39 461.502L1661.9 413.131L1580.33 597.231L1662.07 550.945L1577.09 737.207L1662.29 686.519L1484.75 951.31L1588.79 764.368L1487.41 835.969L1592.05 623.272L1490.96 682.556L1595.26 484.416L1494.36 535.861L1598.48 345.56L1497.59 395.885L1601.71 205.584L1496.25 260.285L1600.37 69.9839L1491.57 123.488L1599.2 -73.455L1484.73 -16.7215Z" fill="url(#paint12_linear_2_62)"/>
<path d="M1954.4 -108.458L2045.4 -264.33L2098.7 -340.405L2043.64 -188.183L2133.16 -232.049L2043.6 -41.4108L2135.68 -98.6624L2049.51 90.9336L2132.47 40.1936L2046.19 234.269L2129.18 182.409L2043.06 369.765L2131.57 321.395L2050 505.495L2131.74 459.209L2046.76 645.471L2131.96 594.783L1954.42 859.573L2058.46 672.631L1957.09 744.233L2061.72 531.536L1960.63 590.82L2064.93 392.68L1964.03 444.125L2068.15 253.824L1967.27 304.149L2071.38 113.848L1965.92 168.549L2070.04 -21.7524L1961.24 31.7512L2068.88 -165.191L1954.4 -108.458Z" fill="url(#paint13_linear_2_62)"/>
<path d="M2100.44 -103.016L2191.44 -258.889L2244.73 -334.964L2189.67 -182.742L2279.2 -226.608L2189.64 -35.9694L2281.72 -93.221L2195.54 96.375L2278.51 45.635L2192.23 239.71L2275.22 187.85L2189.09 375.207L2277.6 326.836L2196.04 510.937L2277.78 464.65L2192.8 650.912L2278 600.224L2100.45 865.015L2204.49 678.073L2103.12 749.675L2207.76 536.977L2106.67 596.261L2210.97 398.121L2110.06 449.566L2214.18 259.265L2113.3 309.591L2217.42 119.289L2111.96 173.99L2216.08 -16.311L2107.28 37.1926L2214.91 -159.75L2100.44 -103.016Z" fill="url(#paint14_linear_2_62)"/>
<path d="M2561.48 -170.03L2652.47 -325.902L2705.77 -401.977L2650.71 -249.755L2740.24 -293.621L2650.68 -102.983L2742.75 -160.235L2656.58 29.3613L2739.54 -21.3787L2653.26 172.697L2736.25 120.837L2650.13 308.193L2738.64 259.822L2657.07 443.923L2738.81 397.636L2653.84 583.899L2739.04 533.211L2561.49 798.001L2665.53 611.059L2564.16 682.661L2668.8 469.963L2567.71 529.247L2672.01 331.107L2571.1 382.553L2675.22 192.251L2574.34 242.577L2678.46 52.2755L2572.99 106.977L2677.11 -83.3247L2568.32 -29.8211L2675.95 -226.764L2561.48 -170.03Z" fill="url(#paint15_linear_2_62)"/>
<path d="M2261.79 -140.325L2352.79 -296.197L2406.09 -372.272L2351.03 -220.05L2440.55 -263.916L2350.99 -73.278L2443.07 -130.53L2356.9 59.0664L2439.86 8.32642L2353.58 202.402L2436.57 150.542L2350.45 337.898L2438.96 289.527L2357.39 473.628L2439.13 427.341L2354.15 613.604L2439.35 562.916L2261.81 827.706L2365.85 640.764L2264.48 712.366L2369.11 499.668L2268.02 558.952L2372.32 360.812L2271.42 412.258L2375.54 221.956L2274.66 272.282L2378.77 81.9806L2273.31 136.682L2377.43 -53.6196L2268.63 -0.115997L2376.27 -197.058L2261.79 -140.325Z" fill="url(#paint16_linear_2_62)"/>
<path d="M2414.99 -173.419L2505.98 -329.291L2559.28 -405.366L2504.22 -253.144L2593.75 -297.01L2504.19 -106.372L2596.27 -163.623L2510.09 25.9726L2593.05 -24.7673L2506.78 169.308L2589.76 117.448L2503.64 304.804L2592.15 256.434L2510.58 440.534L2592.32 394.248L2507.35 580.51L2592.55 529.822L2415 794.612L2519.04 607.67L2417.67 679.272L2522.31 466.575L2421.22 525.859L2525.52 327.719L2424.61 379.164L2528.73 188.863L2427.85 239.188L2531.97 48.8868L2426.51 103.588L2530.62 -86.7134L2421.83 -33.2098L2529.46 -230.152L2414.99 -173.419Z" fill="url(#paint17_linear_2_62)"/>
</g>
</g>
<defs>
<linearGradient id="paint0_linear_2_62" x1="358.393" y1="-189.548" x2="330.572" y2="1013.12" gradientUnits="userSpaceOnUse">
<stop stop-color="#47A3C4"/>
<stop offset="1" stop-color="#FAED88"/>
</linearGradient>
<linearGradient id="paint1_linear_2_62" x1="50.074" y1="-135.125" x2="22.2539" y2="1067.55" gradientUnits="userSpaceOnUse">
<stop stop-color="#47A3C4"/>
<stop offset="1" stop-color="#FAED88"/>
</linearGradient>
<linearGradient id="paint2_linear_2_62" x1="519.746" y1="-226.853" x2="491.926" y2="975.819" gradientUnits="userSpaceOnUse">
<stop stop-color="#47A3C4"/>
<stop offset="1" stop-color="#FAED88"/>
</linearGradient>
<linearGradient id="paint3_linear_2_62" x1="203.271" y1="-168.22" x2="175.45" y2="1034.45" gradientUnits="userSpaceOnUse">
<stop stop-color="#47A3C4"/>
<stop offset="1" stop-color="#FAED88"/>
</linearGradient>
<linearGradient id="paint4_linear_2_62" x1="672.941" y1="-259.957" x2="645.121" y2="942.716" gradientUnits="userSpaceOnUse">
<stop stop-color="#47A3C4"/>
<stop offset="1" stop-color="#FAED88"/>
</linearGradient>
<linearGradient id="paint5_linear_2_62" x1="811.447" y1="-112.22" x2="783.627" y2="1090.45" gradientUnits="userSpaceOnUse">
<stop stop-color="#47A3C4"/>
<stop offset="1" stop-color="#FAED88"/>
</linearGradient>
<linearGradient id="paint6_linear_2_62" x1="1272.48" y1="-179.234" x2="1244.66" y2="1023.44" gradientUnits="userSpaceOnUse">
<stop stop-color="#47A3C4"/>
<stop offset="1" stop-color="#FAED88"/>
</linearGradient>
<linearGradient id="paint7_linear_2_62" x1="1742.16" y1="-270.968" x2="1714.34" y2="931.704" gradientUnits="userSpaceOnUse">
<stop stop-color="#47A3C4"/>
<stop offset="1" stop-color="#FAED88"/>
</linearGradient>
<linearGradient id="paint8_linear_2_62" x1="972.801" y1="-149.529" x2="944.981" y2="1053.14" gradientUnits="userSpaceOnUse">
<stop stop-color="#47A3C4"/>
<stop offset="1" stop-color="#FAED88"/>
</linearGradient>
<linearGradient id="paint9_linear_2_62" x1="1433.84" y1="-216.545" x2="1406.02" y2="986.128" gradientUnits="userSpaceOnUse">
<stop stop-color="#47A3C4"/>
<stop offset="1" stop-color="#FAED88"/>
</linearGradient>
<linearGradient id="paint10_linear_2_62" x1="1903.51" y1="-308.273" x2="1875.69" y2="894.399" gradientUnits="userSpaceOnUse">
<stop stop-color="#47A3C4"/>
<stop offset="1" stop-color="#FAED88"/>
</linearGradient>
<linearGradient id="paint11_linear_2_62" x1="1126" y1="-182.623" x2="1098.18" y2="1020.05" gradientUnits="userSpaceOnUse">
<stop stop-color="#47A3C4"/>
<stop offset="1" stop-color="#FAED88"/>
</linearGradient>
<linearGradient id="paint12_linear_2_62" x1="1587.03" y1="-249.64" x2="1559.21" y2="953.032" gradientUnits="userSpaceOnUse">
<stop stop-color="#47A3C4"/>
<stop offset="1" stop-color="#FAED88"/>
</linearGradient>
<linearGradient id="paint13_linear_2_62" x1="2056.71" y1="-341.377" x2="2028.88" y2="861.296" gradientUnits="userSpaceOnUse">
<stop stop-color="#47A3C4"/>
<stop offset="1" stop-color="#FAED88"/>
</linearGradient>
<linearGradient id="paint14_linear_2_62" x1="2202.74" y1="-335.935" x2="2174.92" y2="866.737" gradientUnits="userSpaceOnUse">
<stop stop-color="#47A3C4"/>
<stop offset="1" stop-color="#FAED88"/>
</linearGradient>
<linearGradient id="paint15_linear_2_62" x1="2663.78" y1="-402.949" x2="2635.96" y2="799.724" gradientUnits="userSpaceOnUse">
<stop stop-color="#47A3C4"/>
<stop offset="1" stop-color="#FAED88"/>
</linearGradient>
<linearGradient id="paint16_linear_2_62" x1="2364.09" y1="-373.244" x2="2336.27" y2="829.429" gradientUnits="userSpaceOnUse">
<stop stop-color="#47A3C4"/>
<stop offset="1" stop-color="#FAED88"/>
</linearGradient>
<linearGradient id="paint17_linear_2_62" x1="2517.29" y1="-406.337" x2="2489.47" y2="796.335" gradientUnits="userSpaceOnUse">
<stop stop-color="#47A3C4"/>
<stop offset="1" stop-color="#FAED88"/>
</linearGradient>
<clipPath id="clip0_2_62">
<rect width="2656" height="692" fill="white"/>
</clipPath>
</defs>
</svg>
