<svg width="597" height="619" viewBox="0 0 597 619" fill="none" xmlns="http://www.w3.org/2000/svg">
<path d="M372.336 85.0723L465.512 62.7423L514.232 55.2465L435.581 89.9968L485.138 108.185L379.115 143.816L434.752 158.071L330.366 194.616L380.171 207.77L274.024 245.918L324.27 258.672L220.763 294.415L271.683 310.562L171.092 346.856L218.738 361.175L116.071 396.955L166.674 410.986L0.00587525 440.127L109.894 411.395L45.3434 398.845L165.356 360.895L105.647 343.935L219.937 311.196L163.31 291.431L274.518 261.497L218.331 241.331L329.54 211.397L269.996 191.081L381.205 161.147L320.904 139.116L435.951 108.092L372.336 85.0723Z" fill="#F8F8F8"/>
<path d="M441.605 131.658L534.781 109.328L583.501 101.832L504.849 136.582L554.407 154.77L448.384 190.402L504.021 204.657L399.635 241.202L449.44 254.356L343.293 292.504L393.538 305.257L290.032 341.001L340.951 357.148L240.361 393.441L288.007 407.76L185.339 443.541L235.942 457.572L69.2749 486.713L179.163 457.981L114.612 445.431L234.624 407.481L174.916 390.521L289.206 357.781L232.578 338.017L343.787 308.082L287.6 287.917L398.808 257.983L339.265 237.667L450.474 207.733L390.174 185.702L505.22 154.678L441.605 131.658Z" fill="#F8F8F8"/>
<path d="M434.811 239.181L528.402 217.288L577.365 210.046L498.463 244.533L548.429 263.15L441.997 298.352L498.054 313.048L393.274 349.181L443.458 362.732L336.917 400.467L387.542 413.617L283.642 448.949L334.966 465.519L234.003 501.422L282.022 516.133L178.967 551.507L229.959 565.945L62.4805 594.236L172.844 566.003L107.831 552.967L228.32 515.518L168.15 498.075L282.916 465.834L225.828 445.586L337.512 416.15L280.864 395.502L392.548 366.066L332.523 345.246L444.207 315.81L383.411 293.258L498.948 262.75L434.811 239.181Z" fill="#F8F8F8"/>
</svg>
