<svg viewBox="0 0 503 503" fill="none" xmlns="http://www.w3.org/2000/svg">
<g clip-path="url(#clip0_205_1209)">
<path d="M251.25 502.5C184.136 502.5 121.047 476.363 73.5919 428.908C26.1373 381.453 0 318.364 0 251.25C0 184.136 26.1373 121.047 73.5919 73.5919C121.047 26.1373 184.136 0 251.25 0C318.364 0 381.453 26.1373 428.908 73.5919C476.363 121.047 502.5 184.136 502.5 251.25C502.5 318.364 476.363 381.453 428.908 428.908C381.453 476.363 318.364 502.5 251.25 502.5ZM251.25 19.2926C189.292 19.2926 131.041 43.4236 87.2325 87.2325C43.4236 131.041 19.2926 189.292 19.2926 251.25C19.2926 313.208 43.4236 371.459 87.2325 415.274C131.041 459.083 189.292 483.207 251.25 483.207C313.208 483.207 371.459 459.076 415.274 415.267C459.083 371.459 483.207 313.208 483.207 251.25C483.207 189.292 459.076 131.041 415.267 87.2325C371.459 43.4175 313.208 19.2926 251.25 19.2926Z" fill="#47A3C4"/>
<path d="M127.347 135.103L124.368 124.545C130.338 124.135 137.446 121.383 142.718 116.954C148.75 111.896 149.508 107.828 147.245 105.13C140.339 96.9032 119.529 124.007 105.821 107.681C99.5456 100.206 100.359 88.9329 112.856 78.4425C118.379 73.806 125.138 70.3805 131.384 69.5303L134.724 79.8922C128.692 80.9933 123.536 83.3972 119.639 86.6636C113.614 91.7222 113.186 95.9368 115.504 98.6955C122.306 106.794 143.171 79.7577 156.714 95.8939C162.879 103.24 162.06 114.636 149.502 125.175C142.541 131.017 133.769 134.852 127.347 135.103Z" fill="#47A3C4"/>
<path d="M162.244 82.6389L150.97 52.5439L163.406 47.8829L174.508 77.5191C178.331 87.7281 184.368 90.2849 191.892 87.4651C199.495 84.6207 202.285 78.7547 198.462 68.5456L187.359 38.9095L199.642 34.3096L210.915 64.4045C216.837 80.2227 211.056 92.3647 195.776 98.0901C180.509 103.815 168.171 98.4571 162.244 82.6389Z" fill="#47A3C4"/>
<path d="M278.158 50.4694C278.139 63.2598 268.536 71.1994 253.207 71.175L241.646 71.1566L241.622 86.9809L228.342 86.9626L228.421 29.5742L253.262 29.6109C268.591 29.6293 278.176 37.5995 278.158 50.4694ZM264.713 50.4511C264.719 44.1385 260.627 40.4439 252.51 40.4316L241.689 40.4194L241.658 60.342L252.479 60.3542C260.596 60.3665 264.7 56.678 264.713 50.4511Z" fill="#47A3C4"/>
<path d="M328.591 93.2209L325.129 103.302L283.106 88.8657L301.744 34.5908L342.758 48.6779L339.296 58.7585L310.767 48.9654L306.718 60.7526L331.913 69.408L328.561 79.1766L303.365 70.5212L299.053 83.0853L328.591 93.2209Z" fill="#47A3C4"/>
<path d="M359.518 128.919L360.644 109.504L360.124 109.1L351.016 101.98L341.168 114.581L330.702 106.403L366.039 61.1807L385.613 76.4789C397.693 85.9172 400.354 98.0898 392.433 108.238C387.13 115.021 379.82 117.321 371.972 115.248L370.755 137.709L359.518 128.919ZM378.37 84.5471L369.843 77.8858L357.524 93.649L366.051 100.31C372.449 105.308 377.997 104.861 381.839 99.9493C385.723 94.9763 384.769 89.5445 378.37 84.5471Z" fill="#47A3C4"/>
<path d="M215.784 454.067C212.909 463.561 203.716 466.772 189.28 462.404L160.873 453.81L177.493 398.881L204.327 407.004C218.06 411.164 223.387 419.024 220.8 427.575C219.136 433.068 215.032 436.451 209.845 437.454C215.374 441.265 217.87 447.161 215.784 454.067ZM203.397 448.862C204.798 444.231 201.929 440.965 195.342 438.971L180.508 434.481L176.398 448.054L191.231 452.544C197.825 454.544 201.972 453.572 203.397 448.862ZM187.231 412.277L183.316 425.226L195.947 429.049C202.143 430.927 206.187 429.753 207.49 425.434C208.793 421.116 206.064 417.978 199.862 416.106L187.231 412.277Z" fill="#47A3C4"/>
<path d="M223.4 442.635C222.923 425.587 235.842 412.595 253.948 412.088C271.974 411.58 285.688 423.746 286.165 440.867C286.648 457.995 273.644 470.907 255.618 471.415C237.512 471.929 223.883 459.683 223.4 442.635ZM272.732 441.253C272.427 430.353 264.511 423.116 254.272 423.404C244.026 423.691 236.533 431.362 236.839 442.262C237.145 453.162 245.06 460.399 255.299 460.111C265.545 459.824 273.038 452.147 272.732 441.253Z" fill="#47A3C4"/>
<path d="M284.367 410.405L296.986 406.264L311.513 450.501L338.85 441.527L342.226 451.81L302.271 464.924L284.367 410.405Z" fill="#47A3C4"/>
<path d="M403.712 389.889L389.246 377.129C418.913 343.511 435.245 300.271 435.245 255.385C435.245 221.455 425.941 188.296 408.337 159.504L424.797 149.441C444.249 181.261 454.537 217.895 454.537 255.379C454.537 304.975 436.487 352.741 403.712 389.889Z" fill="#47A3C4"/>
<path d="M99.0624 386.181C66.0436 348.967 47.8643 301.047 47.8643 251.25C47.8643 214.273 57.8898 178.061 76.8582 146.535L93.3859 156.481C76.2281 185.004 67.1568 217.772 67.1568 251.25C67.1568 296.325 83.6112 339.699 113.498 373.379L99.0624 386.181Z" fill="#47A3C4"/>
<path fill-rule="evenodd" clip-rule="evenodd" d="M282.691 375.82C281.376 381.093 278.324 385.699 274.666 390.605C256.07 393.755 236.552 393.229 217.1 388.39C201.936 384.616 187.953 378.499 175.444 370.535C175.36 369.855 175.271 369.148 175.177 368.413V368.412V368.41C174.951 366.627 174.704 364.677 174.465 362.534C173.065 349.897 177.665 346.037 186.02 343.56C188.045 342.962 191.673 341.828 196.046 340.46C209.717 336.185 230.661 329.634 232.612 330.121C234.113 330.495 235.066 331.198 237.149 332.735C238.64 333.835 240.711 335.363 243.977 337.504C251.807 342.636 284.508 368.535 282.691 375.82ZM383.931 265.368C385.919 267.968 388.305 270.867 390.8 273.528C390.164 277.479 389.369 281.431 388.384 285.382C380.683 316.315 363.268 342.324 340.202 360.981C339.449 360.809 338.703 360.626 337.963 360.442C336.532 360.086 335.035 359.806 333.532 359.524C325.583 358.035 317.429 356.508 317.594 343.535C317.656 338.616 317.586 331.998 317.514 325.174V325.173C317.36 310.597 317.195 295.083 318.291 293.187C319.894 290.386 363.58 263.031 370.859 259.38C377.199 256.205 378.504 257.989 382.138 262.955L382.139 262.957C382.677 263.693 383.267 264.498 383.931 265.368ZM315.435 125.414L315.545 125.384C346.716 141.306 370.346 168.104 382.781 199.697C378.989 205.716 374.719 212.353 372.101 215.987C367.27 222.687 355.244 216.963 344.933 212.055C343.365 211.308 341.837 210.581 340.379 209.919C336.472 208.142 332.499 206.861 328.636 205.615C321.577 203.339 314.883 201.18 309.617 196.333C301.464 188.852 292.637 145.686 294.772 137.116C296.56 129.928 304.363 128.083 311.444 126.408C312.818 126.083 314.164 125.764 315.435 125.414ZM151.42 163.155C151.509 159.462 151.609 155.342 151.117 151.588C175.322 127.347 207.919 112.306 242.73 110.171C243.066 110.545 243.413 110.931 243.77 111.327C249.692 117.897 258.094 127.22 256.847 132.222C255.785 136.498 247.508 146.247 239.885 155.227L239.883 155.228C236.056 159.737 232.393 164.051 229.89 167.382C222.397 177.365 217.155 180.148 201.722 178.129C196.851 177.494 190.178 177.36 183.288 177.222C168.349 176.923 152.392 176.604 151.576 171.107C151.277 169.076 151.345 166.267 151.42 163.155ZM133.935 320.579C131.629 320.126 129.451 319.655 127.415 319.184C110.893 289.095 105.192 252.963 114.117 217.112C114.147 216.996 114.178 216.881 114.208 216.766C114.239 216.652 114.269 216.537 114.3 216.421C121.194 213.424 128.167 210.377 130.718 209.166C135.533 206.891 137.037 208.7 140.19 212.496C140.758 213.179 141.379 213.927 142.083 214.727C146.695 219.975 169.645 246.626 170.832 256.48C171.604 262.889 164.952 276.693 159.443 288.127C156.481 294.273 153.85 299.734 152.879 302.993C152.406 304.581 152.048 306.237 151.694 307.876C149.97 315.855 148.338 323.411 133.935 320.579ZM400.41 281.474C399.963 283.657 399.486 285.835 398.942 288.013C391.406 318.291 375.227 344.184 353.708 363.745L354.16 363.825C330.8 385.142 301.103 398.972 269.258 402.783C269.173 402.661 269.093 402.545 269.026 402.416C251.263 404.527 232.839 403.523 214.482 398.954C200.401 395.449 187.262 390.066 175.273 383.154L175.151 383.46C147.527 367.513 125.995 343.419 112.954 315.184L113.254 315.282C100.072 286.936 95.4784 254.407 101.938 221.773L101.816 221.822C102.287 219.43 102.806 217.039 103.4 214.653C108.77 193.079 118.539 173.744 131.501 157.326L132.057 156.629C132.498 156.078 132.944 155.528 133.391 154.983C169.529 110.881 229.113 88.8967 288.013 103.559C288.27 103.621 288.527 103.69 288.783 103.759C288.955 103.805 289.126 103.851 289.297 103.895C289.732 104.005 290.172 104.121 290.606 104.238C291.389 104.446 292.166 104.66 292.943 104.88C293.438 105.021 293.934 105.161 294.423 105.308C295.231 105.547 296.032 105.791 296.827 106.042L297.891 106.379C307.391 109.431 316.401 113.352 324.867 118.031L325.521 118.392C354.234 134.455 376.542 159.265 389.803 188.424L389.871 188.314C402.814 216.641 407.236 249.073 400.655 281.59L400.41 281.474ZM290.371 225.107C288.778 223.28 285.901 224.681 281.968 226.596C280.629 227.248 279.166 227.96 277.591 228.624C271.39 231.239 266.287 234.185 266.287 234.185L266.13 234.221L265.731 234.451C262.861 237.074 258.494 244.228 263.993 251.867C269.491 259.505 276.082 258.403 278.69 256.897C279.736 255.018 280.51 251.123 276.476 248.954L276.403 249.046C272.141 247.163 266.726 246.427 264.607 246.685C266.677 238.71 273.503 233.59 279.491 232.75C284.476 231.629 292.505 231.834 299.101 245.113C305.786 262.975 293.064 277.078 285.215 279.196C277.366 281.314 264.341 279.18 261.833 274.835C264.341 279.18 260.829 290.379 256.98 295.497C253.131 300.616 232.905 310.362 219.733 293.832C209.195 280.608 214.43 270.506 218.364 267.108C219.045 266.619 219.893 266.113 220.841 265.682C224.777 263.313 230.08 262.212 235.441 263.73C234.577 264.89 233.347 267.65 232.53 270.751C231.608 276.039 233.821 280.965 237.529 280.661C241.426 280.342 246.295 274.634 240.861 265.222C236.547 257.749 228.986 257.031 225.666 257.613L225.61 257.673C225.61 257.673 220.488 260.631 215.1 264.706C213.731 265.742 212.378 266.655 211.139 267.492C207.499 269.949 204.836 271.746 205.62 274.04C202.057 270.996 197.522 255.574 211.438 248.741L211.486 248.599C204.503 236.26 221.102 215.683 226.648 212.665L226.647 212.664C231.498 209.352 258.296 205.011 265.517 217.518C278.846 209.074 289.508 220.49 290.371 225.107Z" fill="#47A3C4"/>
<path d="M251.25 405.089C210.157 405.089 171.523 389.087 142.468 360.032C113.413 330.977 97.4111 292.343 97.4111 251.25C97.4111 210.157 113.413 171.523 142.468 142.468C171.523 113.413 210.157 97.4111 251.25 97.4111C292.343 97.4111 330.977 113.413 360.032 142.468C389.087 171.523 405.089 210.157 405.089 251.25C405.089 292.343 389.087 330.977 360.032 360.032C330.977 389.087 292.343 405.089 251.25 405.089ZM251.25 109.645C213.424 109.645 177.866 124.374 151.117 151.117C124.374 177.86 109.645 213.424 109.645 251.25C109.645 289.077 124.374 324.634 151.117 351.383C177.86 378.132 213.424 392.855 251.25 392.855C289.077 392.855 324.634 378.126 351.383 351.383C378.132 324.64 392.855 289.077 392.855 251.25C392.855 213.424 378.126 177.866 351.383 151.123C324.634 124.374 289.077 109.645 251.25 109.645Z" fill="#47A3C4"/>
</g>
<defs>
<clipPath id="clip0_205_1209">
<rect width="503" height="503" fill="white"/>
</clipPath>
</defs>
</svg>
