<svg width="24" height="24" viewBox="0 0 24 24" fill="none" xmlns="http://www.w3.org/2000/svg">
<path d="M19.2491 2.44712C19.1495 2.35079 19.0283 2.28672 18.8986 2.26183C18.7689 2.23693 18.6356 2.25214 18.513 2.30582L2.22794 9.44378C1.99714 9.5443 1.80174 9.72607 1.67117 9.96173C1.54059 10.1974 1.48189 10.4742 1.50392 10.7504C1.52595 11.0267 1.6275 11.2874 1.7933 11.4935C1.9591 11.6995 2.18016 11.8396 2.4232 11.8927L6.64273 12.8206V18.0902C6.6419 18.3772 6.71805 18.6579 6.86133 18.8959C7.00461 19.1338 7.2084 19.3181 7.44629 19.4249C7.68382 19.5335 7.94504 19.5596 8.19597 19.4997C8.44691 19.4398 8.67596 19.2968 8.85334 19.0892L10.888 16.7257L14.1159 19.8902C14.3488 20.1215 14.6491 20.2496 14.9604 20.2502C15.0969 20.2501 15.2324 20.2261 15.3622 20.1791C15.5743 20.1037 15.7651 19.9674 15.9155 19.7838C16.066 19.6001 16.1708 19.3755 16.2196 19.1324L19.4813 3.24003C19.5105 3.0967 19.5043 2.94718 19.4634 2.8075C19.4225 2.66782 19.3484 2.54324 19.2491 2.44712ZM14.3361 5.68715L7.13692 11.4616L3.15123 10.5859L14.3361 5.68715ZM7.92843 18.0902V13.8169L9.92047 15.7735L7.92843 18.0902ZM14.962 18.8102L8.31816 12.2851L17.8806 4.60894L14.962 18.8102Z" fill="#F8F8F8"/>
</svg>
